# xmcd
#
# Track frame offsets:
#	150
#	17767
#	37994
#	58467
#	87424
#	108516
#	135051
#	156028
#	174707
#	189592
#	205270
#
# Disc length: 3047 seconds
#
# Revision: 0
# Processed by: cddbd v1.5.2PL0 Copyright (c) Steve Scherf et al.
# Submitted via: dBpowerAMP V4.0
#
DISCID=900be50b
DTITLE=Various Artist - Luxury Soul 2008 CD 2
DYEAR=2008
DGENRE=soul
TTITLE0=Maysa feat Ledisi - Scat World
TTITLE1=Kloud 9 - Happy
TTITLE2=Alyson Williams - Make It Through The Night
TTITLE3=Gary G jenkins - Lovin' U
TTITLE4=Carmen Rogers - Love
TTITLE5=Don Blackman - Can You See The Son
TTITLE6=Brigdette - Somehow
TTITLE7=Victor Haynes- Ole Time Love
TTITLE8=Stephanie Mills - Never Knew Love Like This before
TTITLE9=Phillippe - I'm In Love With U
TTITLE10=Denise Stewrt - I'll Never Forget
EXTD=
EXTT0=
EXTT1=
EXTT2=
EXTT3=
EXTT4=
EXTT5=
EXTT6=
EXTT7=
EXTT8=
EXTT9=
EXTT10=
PLAYORDER=
